:version 1.10
:name ASF
:units
  mass 1
  length 1
  angle deg
:documentation
  ASF file generated by Kaydara
:root
  axis xyz
  order  tx ty tz rx ry rz
  position 0 0 0
  orientation 0 0 0
:bonedata
  begin
    id 1
    name RightUpLegDummy
    direction -1 2.30186e-007 8.31532e-007
    length 4.04083
    axis 0 0 0 xyz
  end
  begin
    id 2
    name RightUpLeg
    direction -0.000919234 -0.999985 0.00544864
    length 17.4221
    axis -3.80308 -0.00076134 -0.0523649 xyz
    dof rx ry rz
  end
  begin
    id 3
    name RightLeg
    direction -0.000919271 -0.999984 -0.00555045
    length 17.1239
    axis 4.00314 0.0181274 -0.183583 xyz
    dof rx ry rz
  end
  begin
    id 4
    name RightFoot
    direction -2.57843e-005 -4.04509e-007 1
    length 6.72091
    axis 8.18909e-005 -0.122003 -0.403008 xyz
    dof rx ry rz
  end
  begin
    id 5
    name RightToes
    direction 0.00116825 -0.014069 0.9999
    length 3.85082
    axis 0.000514414 0.540638 -0.356797 xyz
    dof rx ry rz
  end
  begin
    id 6
    name SpineDummy
    direction 0.0168869 0.966876 -0.254689
    length 6.99894
    axis 0 0 0 xyz
  end
  begin
    id 7
    name Spine
    direction -0.0132008 0.999903 0.00446247
    length 11.1999
    axis -0.00148109 0.00725429 0.756411 xyz
    dof rx ry rz
  end
  begin
    id 8
    name Spine1
    direction 0 0 0
    length 0
    axis -0.000934958 0.0245693 1.46543 xyz
    dof rx ry rz
  end
  begin
    id 9
    name HEadDummy
    direction -0.0255732 0.999672 0.00128215
    length 3.43865
    axis -0.000934958 0.0245693 1.46543 xyz
  end
  begin
    id 10
    name HEad
    direction -0.0472656 0.980052 0.19304
    length 5.12695
    axis -0.000934954 0.0245693 1.46543 xyz
    dof rx ry rz
  end
  begin
    id 11
    name LeftShoulder1Dummy
    direction 0.953098 0.301717 -0.023914
    length 3.68488
    axis -0.000934958 0.0245693 1.46543 xyz
  end
  begin
    id 12
    name LeftShoulder1
    direction 0.962466 0.271167 0.0112566
    length 3.13809
    axis -0.000934958 0.0245693 1.46543 xyz
    dof rx ry rz
  end
  begin
    id 13
    name LeftArm
    direction 0.999943 0.00455037 -0.00961766
    length 11.3419
    axis -23.1648 0.685459 1.22814 xyz
    dof rx ry rz
  end
  begin
    id 14
    name LeftForeArm
    direction 0.999332 0.0131969 0.0340885
    length 8.70632
    axis -9.90633 0.618216 0.0826942 xyz
    dof rx ry rz
  end
  begin
    id 15
    name LeftHand
    direction 0.994373 -0.0366703 0.0993905
    length 5.32135
    axis 0.00675269 0.680415 0.445699 xyz
    dof rx ry rz
  end
  begin
    id 16
    name RightShoulderDummy
    direction -0.967298 0.252589 -0.0230903
    length 3.68488
    axis -0.000934958 0.0245693 1.46543 xyz
  end
  begin
    id 17
    name RightShoulder
    direction -0.975062 0.221602 0.0120823
    length 3.13809
    axis 0.216257 0.0246515 1.45863 xyz
    dof rx ry rz
  end
  begin
    id 18
    name RightArm
    direction -0.99886 -0.00851186 -0.0469687
    length 10.3947
    axis -23.196 0.23503 -0.532632 xyz
    dof rx ry rz
  end
  begin
    id 19
    name RightForeArm
    direction -0.99909 0.00114866 0.0426317
    length 8.68355
    axis -9.91764 -0.134943 0.610517 xyz
    dof rx ry rz
  end
  begin
    id 20
    name RightHand
    direction -0.992888 -0.0489538 0.10852
    length 5.28593
    axis -0.00275396 -0.197403 0.246414 xyz
    dof rx ry rz
  end
  begin
    id 21
    name LeftUpLegDummy
    direction 1 -2.30186e-007 -8.31532e-007
    length 4.04083
    axis 0 0 0 xyz
  end
  begin
    id 22
    name LeftUpLeg
    direction -0.000920097 -1 2.79241e-006
    length 17.4221
    axis -3.48782 0.00143434 -0.0532288 xyz
    dof rx ry rz
  end
  begin
    id 23
    name LeftLeg
    direction -0.000920097 -1 2.7912e-006
    length 17.1239
    axis 3.68162 -0.00806512 -0.0529896 xyz
    dof rx ry rz
  end
  begin
    id 24
    name LeftFoot
    direction -2.57845e-005 -3.987e-007 1
    length 6.72091
    axis 3.02372e-005 -0.00147829 -0.214229 xyz
    dof rx ry rz
  end
  begin
    id 25
    name LeftToes
    direction 0.00813577 -0.00488255 0.999955
    length 3.85048
    axis 3.89895e-005 -0.0014783 -0.214229 xyz
    dof rx ry rz
  end
:hierarchy
  begin
    root RightUpLegDummy SpineDummy LeftUpLegDummy
    RightUpLegDummy RightUpLeg
    RightUpLeg RightLeg
    RightLeg RightFoot
    RightFoot RightToes
    SpineDummy Spine
    Spine Spine1
    Spine1 HEadDummy LeftShoulder1Dummy RightShoulderDummy
    HEadDummy HEad
    LeftShoulder1Dummy LeftShoulder1
    LeftShoulder1 LeftArm
    LeftArm LeftForeArm
    LeftForeArm LeftHand
    RightShoulderDummy RightShoulder
    RightShoulder RightArm
    RightArm RightForeArm
    RightForeArm RightHand
    LeftUpLegDummy LeftUpLeg
    LeftUpLeg LeftLeg
    LeftLeg LeftFoot
    LeftFoot LeftToes
  end

:SAMPLES-PER-SECOND 30
:FULLY-SPECIFIED
:DEGREES
16
root  -12.097 34.5864 -18.2279 -170.222 0.902176 179.772
RightUpLeg  -8.12022 -13.8307 0.0130244
RightLeg  6.2823 -1.37745 -0.061339
RightFoot  2.16421 0.0112117 0.0929073
RightToes  -22.1914 -0.0949938 -0.194822
Spine  -3.02077 -0.00597718 0.126386
Spine1  -6.13206 0.0937917 0.822737
HEad  -64.6186 3.24537 6.02544
LeftShoulder1  -1.94126e-019 -3.10601e-018 -2.51263e-017
LeftArm  -13.6082 26.3896 -81.787
LeftForeArm  32.0603 -15.333 -2.47393
LeftHand  -0.377771 -0.791159 7.3077
RightShoulder  -4.96962e-017 0 -2.36833e-017
RightArm  -28.6123 -24.3365 77.0476
RightForeArm  57.1788 13.6205 1.29124
RightHand  -0.338816 -1.1922 -9.34482
LeftUpLeg  -8.20671 2.88054 0.97368
LeftLeg  6.14596 13.3802 0.569717
LeftFoot  3.60871 -0.0209474 0.982907
LeftToes  -18.1033 1.48347e-006 1.01831e-007
17
root  -12.1049 34.5879 -18.2288 -170.204 0.903473 179.769
RightUpLeg  -8.11066 -13.8332 0.000445966
RightLeg  6.22491 -1.36941 -0.059604
RightFoot  2.21123 0.0112529 0.092319
RightToes  -22.2307 -0.0949938 -0.194822
Spine  -3.03148 9.08579e-005 0.136281
Spine1  -6.15362 0.108865 0.841926
HEad  -64.9121 3.08386 6.02085
LeftShoulder1  -1.94126e-019 -3.10601e-018 -2.51263e-017
LeftArm  -13.619 26.3798 -81.8082
LeftForeArm  32.0734 -15.3751 -2.48188
LeftHand  -0.378831 -0.776014 7.25318
RightShoulder  -4.96962e-017 0 -2.36833e-017
RightArm  -28.6086 -24.2726 77.0303
RightForeArm  57.158 13.6155 1.29202
RightHand  -0.340341 -1.13981 -9.29301
LeftUpLeg  -8.20383 2.86384 0.955792
LeftLeg  6.11594 13.3986 0.563523
LeftFoot  3.63289 -0.0210871 0.985078
LeftToes  -18.1249 1.48347e-006 1.01831e-007
18
root  -12.1098 34.5894 -18.231 -170.191 0.917679 179.766
RightUpLeg  -8.10008 -13.8752 -0.00849827
RightLeg  6.17788 -1.31796 -0.0562434
RightFoot  2.2263 0.0112818 0.0919058
RightToes  -22.1835 -0.0949938 -0.194822
Spine  -3.04287 0.0058776 0.144941
Spine1  -6.17658 0.12321 0.858514
HEad  -65.246 2.71262 5.94875
LeftShoulder1  -1.94126e-019 -3.10601e-018 -2.51263e-017
LeftArm  -13.6708 26.3732 -81.8242
LeftForeArm  32.052 -15.4307 -2.49324
LeftHand  -0.375719 -0.668797 7.31242
RightShoulder  -4.96962e-017 0 -2.36833e-017
RightArm  -28.6046 -24.2251 77.032
RightForeArm  57.1303 13.6165 1.29213
RightHand  -0.336841 -1.19225 -9.41468
LeftUpLeg  -8.20319 2.88516 0.943389
LeftLeg  6.09218 13.3863 0.557508
LeftFoot  3.63885 -0.0213107 0.988553
LeftToes  -18.168 1.48347e-006 1.01831e-007
19
root  -12.1146 34.5907 -18.2337 -170.165 0.928009 179.759
RightUpLeg  -8.09846 -13.8896 -0.0191754
RightLeg  6.12778 -1.29513 -0.0541196
RightFoot  2.24281 0.011298 0.0916749
RightToes  -22.2249 -0.0949938 -0.194822
Spine  -3.06614 0.018593 0.156411
Spine1  -6.2229 0.150775 0.880943
HEad  -65.8199 2.20815 5.71708
LeftShoulder1  -1.94126e-019 -3.10601e-018 -2.51263e-017
LeftArm  -13.7528 26.359 -81.857
LeftForeArm  32.0697 -15.4563 -2.50114
LeftHand  -0.376238 -0.714562 7.25336
RightShoulder  -4.96962e-017 0 -2.36833e-017
RightArm  -28.6485 -24.1998 77.0192
RightForeArm  57.1179 13.6019 1.29706
RightHand  -0.340137 -1.17162 -9.29877
LeftUpLeg  -8.20774 2.88109 0.925573
LeftLeg  6.06277 13.403 0.551371
LeftFoot  3.63557 -0.0215173 0.991765
LeftToes  -18.1125 1.48347e-006 1.01831e-007
20
root  -12.1202 34.5931 -18.2367 -170.157 0.941391 179.756
RightUpLeg  -8.08319 -13.8787 -0.0309996
RightLeg  6.08195 -1.29167 -0.0554163
RightFoot  2.28723 0.0113009 0.0916335
RightToes  -22.2783 -0.0949938 -0.194822
Spine  -3.08416 0.0271832 0.168068
Spine1  -6.25864 0.170637 0.903846
HEad  -66.7599 1.78814 5.44977
LeftShoulder1  -1.94126e-019 -3.10601e-018 -2.51263e-017
LeftArm  -13.7959 26.3739 -81.873
LeftForeArm  31.9955 -15.624 -2.53076
LeftHand  -0.374477 -0.670734 7.26752
RightShoulder  -4.96962e-017 0 -2.36833e-017
RightArm  -28.679 -24.1702 77.0226
RightForeArm  57.1 13.5983 1.30042
RightHand  -0.33952 -1.21268 -9.31893
LeftUpLeg  -8.18701 2.88636 0.914275
LeftLeg  6.01426 13.4081 0.540318
LeftFoot  3.64222 -0.0216564 0.993927
LeftToes  -18.0447 1.48347e-006 1.01831e-007
21
root  -12.1256 34.5963 -18.2389 -170.144 0.959488 179.753
RightUpLeg  -8.07631 -13.8164 -0.0418383
RightLeg  6.04572 -1.33103 -0.0530754
RightFoot  2.31394 0.01129 0.0917887
RightToes  -22.2685 -0.0949938 -0.194822
Spine  -3.07842 0.0367263 0.183637
Spine1  -6.24657 0.192161 0.934641
HEad  -67.7231 1.50729 5.12398
LeftShoulder1  -1.94126e-019 -3.10601e-018 -2.51263e-017
LeftArm  -13.7693 26.3676 -81.8828
LeftForeArm  31.9794 -15.8542 -2.56765
LeftHand  -0.372465 -0.671016 7.29731
RightShoulder  -4.96962e-017 0 -2.36833e-017
RightArm  -28.6391 -24.1292 77.0205
RightForeArm  57.0337 13.6538 1.29346
RightHand  -0.339606 -1.14758 -9.31885
LeftUpLeg  -8.16659 2.86566 0.900652
LeftLeg  5.95653 13.4477 0.528448
LeftFoot  3.67065 -0.0222825 1.00366
LeftToes  -18.0007 1.48347e-006 1.01831e-007
22
root  -12.1308 34.5991 -18.2406 -170.121 0.977783 179.747
RightUpLeg  -8.0741 -13.8067 -0.0512024
RightLeg  5.9897 -1.33735 -0.0526976
RightFoot  2.34599 0.0112649 0.0921477
RightToes  -22.3057 -0.0949938 -0.194822
Spine  -3.06188 0.0488984 0.195633
Spine1  -6.21259 0.217838 0.959468
HEad  -68.6839 1.43065 5.01403
LeftShoulder1  -1.94126e-019 -3.10601e-018 -2.51263e-017
LeftArm  -13.6744 26.3485 -81.8948
LeftForeArm  31.9607 -16.1156 -2.60471
LeftHand  -0.372747 -0.746131 7.2331
RightShoulder  -4.96962e-017 0 -2.36833e-017
RightArm  -28.5262 -24.0858 77.017
RightForeArm  56.9165 13.7336 1.28382
RightHand  -0.339973 -1.16251 -9.30503
LeftUpLeg  -8.15059 2.85511 0.884578
LeftLeg  5.88507 13.4718 0.512717
LeftFoot  3.70219 -0.0229014 1.01328
LeftToes  -18.0192 1.48347e-006 1.01831e-007
23
root  -12.1353 34.5989 -18.2439 -170.097 0.99649 179.743
RightUpLeg  -8.08021 -13.8163 -0.0599361
RightLeg  5.95985 -1.30592 -0.0507553
RightFoot  2.35688 0.011225 0.0927176
RightToes  -22.3116 -0.0949938 -0.194822
Spine  -3.06037 0.0593087 0.201327
Spine1  -6.20931 0.239366 0.971148
HEad  -69.1647 1.50094 5.00043
LeftShoulder1  -1.94126e-019 -3.10601e-018 -2.51263e-017
LeftArm  -13.5389 26.3352 -81.8733
LeftForeArm  31.9307 -16.2615 -2.62261
LeftHand  -0.372407 -0.726488 7.16776
RightShoulder  -4.96962e-017 0 -2.36833e-017
RightArm  -28.3468 -24.0741 77.0108
RightForeArm  56.8316 13.7624 1.28081
RightHand  -0.341847 -1.13508 -9.23928
LeftUpLeg  -8.15425 2.86875 0.869635
LeftLeg  5.86185 13.4752 0.507426
LeftFoot  3.70614 -0.0229947 1.01473
LeftToes  -18.0277 1.48347e-006 1.01831e-007
24
root  -12.1389 34.5977 -18.2504 -170.075 1.01277 179.742
RightUpLeg  -8.09139 -13.8506 -0.0655652
RightLeg  5.95385 -1.26192 -0.0488782
RightFoot  2.35004 0.0111699 0.0935057
RightToes  -22.3135 -0.0949938 -0.194822
Spine  -3.07941 0.0658466 0.205278
Spine1  -6.24758 0.253003 0.977997
HEad  -69.1735 1.63875 5.02419
LeftShoulder1  -1.94126e-019 -3.10601e-018 -2.51263e-017
LeftArm  -13.5208 26.2878 -81.8561
LeftForeArm  32.0132 -16.1553 -2.61078
LeftHand  -0.369379 -0.792368 7.25321
RightShoulder  -4.96962e-017 0 -2.36833e-017
RightArm  -28.3157 -24.0627 76.9896
RightForeArm  56.8395 13.6844 1.2914
RightHand  -0.340033 -1.17001 -9.30256
LeftUpLeg  -8.17421 2.95356 0.858551
LeftLeg  5.88056 13.4079 0.516409
LeftFoot  3.67464 -0.0222103 1.00254
LeftToes  -18.0238 1.48347e-006 1.01831e-007
25
root  -12.1412 34.5961 -18.2569 -170.06 1.01431 179.742
RightUpLeg  -8.10202 -13.8955 -0.0674776
RightLeg  5.96187 -1.21203 -0.047074
RightFoot  2.33805 0.0110303 0.0954997
RightToes  -22.3645 -0.0949938 -0.194822
Spine  -3.09881 0.0634949 0.202284
Spine1  -6.28668 0.254613 0.982267
HEad  -69.0932 1.78914 5.06777
LeftShoulder1  -1.94126e-019 -3.10601e-018 -2.51263e-017
LeftArm  -13.5761 26.2366 -81.8517
LeftForeArm  32.012 -16.0284 -2.5973
LeftHand  -0.367325 -0.762866 7.26522
RightShoulder  -4.96962e-017 0 -2.36833e-017
RightArm  -28.4047 -24.0571 76.9691
RightForeArm  56.8998 13.6127 1.30054
RightHand  -0.339728 -1.20343 -9.31191
LeftUpLeg  -8.18963 2.98821 0.852436
LeftLeg  5.90648 13.3789 0.522515
LeftFoot  3.65152 -0.0217202 0.994919
LeftToes  -18.0581 1.48347e-006 1.01831e-007
26
root  -12.1385 34.5916 -18.268 -169.977 1.01503 179.719
RightUpLeg  -7.90099 -13.4359 -0.0991365
RightLeg  5.4448 -1.62165 -0.0487175
RightFoot  2.55515 0.0125085 0.0743774
RightToes  -22.4309 -0.0949938 -0.194822
Spine  -3.15218 0.0576201 0.201143
Spine1  -6.39298 0.241256 0.970199
HEad  -68.9133 2.19045 5.19098
LeftShoulder1  -1.94126e-019 -3.10601e-018 -2.51263e-017
LeftArm  -13.783 26.1797 -81.8225
LeftForeArm  32.0791 -15.8199 -2.57333
LeftHand  -0.365234 -0.685719 7.2684
RightShoulder  -4.96962e-017 0 -2.36833e-017
RightArm  -28.6484 -24.0694 76.9499
RightForeArm  57.0281 13.5284 1.31061
RightHand  -0.340009 -1.20128 -9.30198
LeftUpLeg  -8.24743 2.94503 0.832568
LeftLeg  5.89501 13.4171 0.519895
LeftFoot  3.61879 -0.0213937 0.989844
LeftToes  -18.024 1.48347e-006 1.01831e-007
27
root  -12.1461 34.592 -18.2792 -170.019 1.01547 179.749
RightUpLeg  -8.12563 -13.8938 -0.0643695
RightLeg  6.00313 -1.2141 -0.0480295
RightFoot  2.28182 0.010954 0.0965906
RightToes  -22.3255 -0.0949938 -0.194822
Spine  -3.14771 0.0537531 0.212507
Spine1  -6.38434 0.228958 0.99162
HEad  -68.7077 2.44371 5.34105
LeftShoulder1  -1.94126e-019 -3.10601e-018 -2.51263e-017
LeftArm  -13.8141 26.1958 -81.8143
LeftForeArm  32.1244 -15.8995 -2.58176
LeftHand  -0.364469 -0.742485 7.25028
RightShoulder  -4.96962e-017 0 -2.36833e-017
RightArm  -28.572 -24.1034 76.9059
RightForeArm  56.937 13.5999 1.29605
RightHand  -0.338608 -1.19212 -9.35222
LeftUpLeg  -8.19196 2.92649 0.852475
LeftLeg  5.9084 13.4431 0.51707
LeftFoot  3.59585 -0.0211758 0.986457
LeftToes  -17.9726 1.48347e-006 1.01831e-007
28
root  -12.1461 34.5937 -18.2792 -170.019 1.01639 179.749
RightUpLeg  -8.12563 -13.8938 -0.0643695
RightLeg  6.00313 -1.2141 -0.0480295
RightFoot  2.28182 0.010954 0.0965906
RightToes  -22.3255 -0.0949938 -0.194822
Spine  -3.14771 0.0547438 0.212507
Spine1  -6.38434 0.228958 0.99162
HEad  -68.7077 2.44371 5.34105
LeftShoulder1  -1.94126e-019 -3.10601e-018 -2.51263e-017
LeftArm  -13.8141 26.1958 -81.8143
LeftForeArm  32.1244 -15.8995 -2.58176
LeftHand  -0.363131 -0.742485 7.25028
RightShoulder  -4.96962e-017 0 -2.36833e-017
RightArm  -28.572 -24.1034 76.9059
RightForeArm  56.9371 13.6012 1.30166
RightHand  -0.338608 -1.19212 -9.35222
LeftUpLeg  -8.19196 2.92649 0.852475
LeftLeg  5.9084 13.4426 0.513251
LeftFoot  3.59585 -0.0209804 0.98342
LeftToes  -17.9726 1.48347e-006 1.01831e-007
